<svg width="9" height="19" viewBox="0 0 9 19" fill="none" xmlns="http://www.w3.org/2000/svg">
<path fill-rule="evenodd" clip-rule="evenodd" d="M2.05636 9.7121V18.5421C2.05636 18.6485 2.1685 18.7549 2.28065 18.7549H5.75727C5.86942 18.7549 5.98157 18.6485 5.98157 18.5421V9.55252H8.50492C8.61707 9.55252 8.72922 9.44614 8.72922 9.33975L8.95351 6.62692C8.95351 6.46735 8.84136 6.36096 8.72922 6.36096H5.98157V4.49922C5.98157 4.07367 6.37409 3.70133 6.82268 3.70133H8.72922C8.84136 3.70133 8.95351 3.59494 8.95351 3.48856V0.722536C9.06566 0.616151 8.95351 0.509766 8.78529 0.509766H5.53297C3.62644 0.509766 2.05636 1.99916 2.05636 3.80771V6.41415H0.318048C0.205899 6.41415 0.09375 6.52054 0.09375 6.62692V9.33975C0.09375 9.44614 0.205899 9.55252 0.318048 9.55252H2.05636V9.7121Z" fill="#42B6C3"/>
</svg>
