<svg width="18" height="19" viewBox="0 0 18 19" fill="none" xmlns="http://www.w3.org/2000/svg">
<path d="M17.9556 5.98189C17.9145 5.03459 17.7638 4.38333 17.548 3.819C17.3253 3.21998 16.9828 2.68368 16.534 2.23785C16.0955 1.78508 15.5646 1.43326 14.9823 1.21042C14.424 0.990971 13.7868 0.837781 12.8552 0.796014C11.9165 0.75071 11.6185 0.740234 9.23785 0.740234C6.85718 0.740234 6.55919 0.75071 5.62402 0.792477C4.69233 0.834244 4.0518 0.98757 3.49691 1.20688C2.90763 1.43326 2.38017 1.78155 1.94168 2.23785C1.49638 2.68368 1.15049 3.22352 0.931183 3.8156C0.715354 4.38333 0.564689 5.03105 0.52361 5.97836C0.479053 6.93273 0.46875 7.23571 0.46875 9.65628C0.46875 12.0768 0.479053 12.3798 0.520131 13.3307C0.56121 14.278 0.712009 14.9292 0.927838 15.4936C1.15049 16.0926 1.49638 16.6289 1.94168 17.0747C2.38017 17.5275 2.91111 17.8793 3.49343 18.1021C4.0518 18.3216 4.68885 18.4748 5.62068 18.5165C6.55571 18.5584 6.85383 18.5688 9.2345 18.5688C11.6152 18.5688 11.9132 18.5584 12.8483 18.5165C13.78 18.4748 14.4205 18.3216 14.9754 18.1021C16.1539 17.6389 17.0856 16.6916 17.5412 15.4936C17.7569 14.9258 17.9077 14.278 17.9487 13.3307C17.9898 12.3798 18.0001 12.0768 18.0001 9.65628C18.0001 7.23571 17.9966 6.93273 17.9556 5.98189ZM16.3765 13.261C16.3388 14.1317 16.1949 14.6019 16.0751 14.9154C15.7804 15.6921 15.1741 16.3085 14.4102 16.6081C14.102 16.73 13.6362 16.8762 12.7832 16.9144C11.8583 16.9563 11.5809 16.9667 9.24133 16.9667C6.90173 16.9667 6.62087 16.9563 5.69935 16.9144C4.843 16.8762 4.38056 16.73 4.07227 16.6081C3.69213 16.4652 3.34611 16.2388 3.06525 15.9428C2.77409 15.6537 2.55144 15.3054 2.41094 14.9189C2.29105 14.6054 2.14721 14.1317 2.10961 13.2645C2.0684 12.3242 2.05823 12.042 2.05823 9.66322C2.05823 7.28442 2.0684 6.99885 2.10961 6.06203C2.14721 5.19132 2.29105 4.72114 2.41094 4.40768C2.55144 4.02103 2.77409 3.66935 3.06873 3.38365C3.35293 3.08761 3.69548 2.86122 4.07575 2.71851C4.38404 2.59661 4.84995 2.45036 5.70283 2.41199C6.6277 2.37023 6.90521 2.35975 9.24467 2.35975C11.5877 2.35975 11.8651 2.37023 12.7866 2.41199C13.643 2.45036 14.1054 2.59661 14.4137 2.71851C14.7939 2.86122 15.1399 3.08761 15.4207 3.38365C15.7119 3.67275 15.9346 4.02103 16.0751 4.40768C16.1949 4.72114 16.3388 5.19472 16.3765 6.06203C16.4176 7.00239 16.4279 7.28442 16.4279 9.66322C16.4279 12.042 16.4176 12.3206 16.3765 13.261Z" fill="#42B6C3"/>
<path d="M9.23883 5.07812C6.75204 5.07812 4.73438 7.12946 4.73438 9.65805C4.73438 12.1866 6.75204 14.238 9.23883 14.238C11.7258 14.238 13.7433 12.1866 13.7433 9.65805C13.7433 7.12946 11.7258 5.07812 9.23883 5.07812ZM9.23883 12.6289C7.62553 12.6289 6.3169 11.2985 6.3169 9.65805C6.3169 8.01758 7.62553 6.68717 9.23883 6.68717C10.8523 6.68717 12.1608 8.01758 12.1608 9.65805C12.1608 11.2985 10.8523 12.6289 9.23883 12.6289Z" fill="#42B6C3"/>
<path d="M14.9703 4.89746C14.9703 5.48798 14.4995 5.9668 13.9187 5.9668C13.338 5.9668 12.8672 5.48798 12.8672 4.89746C12.8672 4.3068 13.338 3.82812 13.9187 3.82812C14.4995 3.82812 14.9703 4.3068 14.9703 4.89746Z" fill="#42B6C3"/>
</svg>
