<svg width="17" height="15" viewBox="0 0 17 15" fill="none" xmlns="http://www.w3.org/2000/svg">
<path d="M16.781 2.13522C16.2427 2.39049 15.7043 2.54365 15.117 2.64575C15.3617 2.5947 15.7533 2.08417 15.949 1.87996C16.1937 1.57364 16.3895 1.21627 16.4874 0.858893C16.4874 0.80784 16.5363 0.80784 16.4874 0.756786C16.4384 0.756786 16.4384 0.756786 16.3895 0.756786C15.7533 1.11416 15.117 1.36942 14.4318 1.52258C14.3829 1.52258 14.3339 1.52258 14.285 1.47153C14.236 1.42048 14.1871 1.31837 14.0892 1.26732C13.7956 1.01205 13.5019 0.80784 13.1593 0.65468C12.7188 0.450467 12.1805 0.399414 11.691 0.399414C11.2016 0.450467 10.7122 0.552574 10.3207 0.80784C9.88019 1.06311 9.48865 1.36942 9.19499 1.77785C8.90134 2.18628 8.65663 2.64575 8.5098 3.15629C8.41192 3.66682 8.41192 4.1263 8.46086 4.63683C8.46086 4.73893 8.46086 4.73893 8.41192 4.73893C5.7201 4.33051 3.46875 3.30945 1.65789 1.16521C1.56001 1.06311 1.56001 1.06311 1.46212 1.16521C0.727988 2.44154 1.11953 4.43262 2.09837 5.40263C2.2452 5.55579 2.34308 5.65789 2.48991 5.76C2.44097 5.76 1.75578 5.70895 1.16847 5.40263C1.07058 5.35157 1.07058 5.40263 1.02164 5.45368C1.02164 5.60684 1.02164 5.70895 1.02164 5.86211C1.16847 7.13843 2.00049 8.26161 3.1751 8.72108C3.32193 8.77214 3.46875 8.82319 3.61558 8.87424C3.37087 8.9253 3.07722 8.97635 2.34308 8.9253C2.2452 8.9253 2.19626 8.97635 2.2452 9.0274C2.78356 10.6101 4.00712 11.1206 4.93702 11.3758C5.03491 11.3758 5.18173 11.3758 5.27962 11.4269C4.98596 11.8864 3.95818 12.2438 3.46875 12.448C2.58779 12.7543 1.60895 12.9074 0.679046 12.8053C0.532219 12.8053 0.483277 12.8053 0.434335 12.8053C0.385393 12.8564 0.434335 12.8564 0.483277 12.9074C0.679046 13.0606 0.874815 13.1627 1.07058 13.2648C1.65789 13.5711 2.29414 13.8775 2.93039 14.0306C6.25846 15.0006 10.027 14.2859 12.5231 11.6822C14.4808 9.64004 15.1659 6.83212 15.1659 4.02419C15.1659 3.92208 15.3128 3.87103 15.3617 3.81998C15.8511 3.41155 16.2916 2.95207 16.6832 2.39049C16.781 2.28838 16.781 2.18628 16.781 2.13522C16.83 2.08417 16.83 2.08417 16.781 2.13522Z" fill="#42B6C3"/>
</svg>
